PathFileType	4	(X/Y/Z)	C:\Users\°ÂÌØÂü\Desktop\20210112\bx_y_10_501-Unnamed.trc
DataRate	CameraRate	NumFrames	NumMarkers	Units	OrigDataRate	OrigDataStartFrame	OrigNumFrames
50.00	50.00	       4	0	mm	50.00	135	       537
Frame#	Time	
		

135	2.680	-432.56808	-77.46619	1363.42493	-439.31094	262.40344	1369.73499				-773.59186	79.48996	568.43927	-775.09918	284.38336	870.39722	-717.52435	-7.07878	801.37286	-716.54553	215.21492	810.88196	-818.44708	254.82724	628.82037				-772.00293	145.44197	570.51080	-739.97772	18.25576	524.94287	-808.82678	248.92148	567.65228	-835.31897	260.96307	489.38885	-747.77417	207.82732	535.49536	-725.05981	74.06387	220.17499	-666.13568	-67.93192	161.14642	-719.08667	156.68764	220.35327	-776.73029	225.68787	201.15724	-882.62439	295.93469	144.55132	-676.69324	54.81176	161.48778	-604.98608	18.94732	167.33174	-677.15143	175.16478	161.50636	-596.98975	223.30794	173.75319	-667.08331	299.87769	159.02731	-629.14508	306.90869	161.37927	-562.12744	259.78784	164.62267	-527.91718	304.11664	146.52104	-228.39191	87.74590	1579.76111				-811.29730	284.93741	739.50061	-517.95465	-72.70255	143.07642	-563.01099	-39.13376	162.52460	-799.02490	174.86734	182.57883	-796.72778	53.80584	174.41589	-912.32709	95.93178	1089.52087	-828.81055	-36.35346	476.55307	-772.46313	-8.10527	203.08815	-876.44165	-77.93820	141.21765	-796.74017	-28.44668	611.01428	-798.93433	-25.19165	561.63336	-624.29633	-79.26941	157.99950	-819.47089	-52.98357	708.67114	
136	2.700	-427.30325	-77.66909	1352.82117	-433.57269	261.93167	1359.06848				-775.93738	79.60164	568.94501	-778.05194	284.31808	870.04315	-721.59613	-7.72405	800.24915				-820.61487	254.81091	627.91187				-774.31934	146.10764	570.18542	-742.08691	18.16346	525.07672	-810.61786	248.84984	566.82172	-837.02454	260.75797	488.95346	-749.35419	208.08154	535.70514	-725.34229	73.92942	220.18620	-666.08380	-68.04478	161.05775	-719.24329	156.68748	220.38976	-776.82532	225.76921	201.09941	-882.54474	295.90454	144.62527	-676.89764	54.46320	161.30315	-605.06274	19.12816	167.15903	-677.26965	175.40866	161.48514	-596.86884	223.03490	173.47076	-667.03766	299.72763	159.08072	-629.15100	307.09979	161.46155	-562.13580	259.84329	164.44519	-527.96918	304.15039	146.44147	-221.36569	86.70441	1566.98560				-814.12274	284.90125	738.72052	-517.90552	-72.86374	143.14818	-562.94940	-39.07399	162.59026	-798.95959	175.02687	182.58034	-796.94006	53.70989	174.37778	-912.83490	95.49666	1089.08862	-830.16913	-36.96276	476.45245	-772.83167	-8.45822	203.05397	-876.51874	-78.10348	141.23903	-798.84869	-28.89845	610.58368	-801.08990	-25.01771	561.28510	-624.29633	-79.26941	157.99950	-823.67133	-53.67090	709.58319	
137	2.720	-422.10361	-78.09888	1341.89856	-427.97302	261.24106	1349.22949	-723.13184	215.38872	809.99780				-781.49677	284.65979	869.80603	-724.49695	-8.21857	799.62360				-822.97662	255.08521	627.70593				-775.54541	145.80077	570.22302	-743.45532	17.94934	525.39655	-812.70032	248.88724	567.10388	-838.20105	260.86359	488.39133	-751.30444	208.19794	535.45044	-725.32849	73.81175	220.36188	-666.00403	-68.00558	161.00504	-719.85706	156.89734	220.55661	-776.79279	225.66391	201.18707	-882.47375	295.96918	144.74054	-676.92566	54.61559	161.86555	-605.27051	19.12982	167.33463	-677.26965	175.40866	161.48514	-596.36560	222.97908	173.69299	-667.03766	299.72763	159.08072	-629.07013	307.07956	161.49664	-562.32837	259.73886	164.50142	-527.93878	304.11139	146.39842	-214.84242	85.67175	1554.81897				-817.07275	285.28436	738.47260	-517.96991	-72.65473	142.79726	-562.86340	-39.02043	162.65433	-798.95959	175.02687	182.58034	-796.91919	53.47464	174.32213	-915.95966	96.23333	1090.99634	-831.60583	-37.08845	476.19904	-772.93573	-8.52172	202.88051	-876.50647	-77.77415	141.04610	-800.99084	-29.24200	610.71143	-803.02203	-25.70786	560.99243	-624.08691	-79.28783	157.81061	
138	2.740	-417.00000	-77.82706	1330.39429	-422.35474	260.35870	1339.04724	-726.48175	214.93869	809.72961	-828.30762	-54.33060	707.95874	-784.81763	284.34335	869.19946	-727.59387	-8.51716	799.32068	-801.35596	-67.94434	861.93713	-824.86798	255.09605	627.17200				-778.07245	146.42607	569.54663	-745.49127	18.11657	524.84003	-814.17700	248.99132	566.34180	-839.86560	260.86441	488.01190	-753.01239	208.22954	535.20538	-725.58582	73.44880	220.45662	-666.00525	-68.07241	161.09038	-719.60419	156.82831	220.58951	-776.73883	225.79799	200.94817	-882.59039	295.95660	144.61356	-677.12567	54.57928	162.11357	-605.06396	19.18004	167.43832	-677.45215	175.43549	161.56207	-596.59869	222.91684	173.88083	-666.94830	299.74295	158.99783	-628.93518	307.16931	161.53191	-562.41614	259.66180	164.33450	-527.97791	303.98965	146.39313	-208.78513	84.54818	1542.59607				-820.77399	286.99725	738.54779	-518.05957	-72.76737	142.86081	-563.11670	-38.90099	162.27260	-799.25214	175.27341	182.33820	-797.20691	53.15925	174.23201	-917.03381	95.65543	1091.33264	-832.80902	-37.56411	475.75772	-772.96545	-8.67025	202.99515	-876.45081	-77.87003	140.66679	-803.08405	-29.45258	609.88977	-803.81555	-25.67925	561.08447	-624.17859	-79.37100	157.94157	
